# xmcd
#
# Track frame offsets:
#  150
#  18112
#  30966
#  51521
#  65104
#  80130
#  97666
#  117814
#  130766
#  149826
#  169643
#  186835
#
# Disc length: 2706 seconds
#
# Revision: 0
# Processed by: cddbd v1.5.2PL0 Copyright (c) Steve Scherf et al.
# Submitted via: Collectorz.com_Music_Collector 6.11
#
DISCID=a00a900c
DTITLE=Music Road Pilots - When She Gets Close To Me
DYEAR=2010
DGENRE=
TTITLE0=When She Gets Close To Me
TTITLE1=Sweet Little Lisa
TTITLE2=But For The Grace Of God
TTITLE3=Undo The Right
TTITLE4=That's Not Her Picture
TTITLE5=Crash Course In The Blues
TTITLE6=The One That Got Away
TTITLE7=Walking In The Country
TTITLE8=Shotgun Rider
TTITLE9=Whenever You Come Around
TTITLE10=Just To See You Smile
TTITLE11=Love You
EXTD=
EXTT0=
EXTT1=
EXTT2=
EXTT3=
EXTT4=
EXTT5=
EXTT6=
EXTT7=
EXTT8=
EXTT9=
EXTT10=
EXTT11=
PLAYORDER=
